# xmcd CD database file
#
# Track frame offsets:
#	150
#	28711
#	60375
#	92871
#	118245
#	144081
#	187588
#	209901
#
# Disc length: 3155 seconds
#
# Revision: 0
# Processed by: cddbd v1.5.2PL0 Copyright (c) Steve Scherf et al.
# Submitted via: CDex 1.70beta2
#
DISCID=6c0c5108
DTITLE=Manami Morita - カラーズ　Colors
DYEAR=2009
DGENRE=Jazz
TTITLE0=My Little Sweetie
TTITLE1=Jungle Book
TTITLE2=Sleeping Tiger
TTITLE3=My Favorite Things
TTITLE4=ESP
TTITLE5=Interlude
TTITLE6=Goodbye at 12:00 A.M.
TTITLE7=Going Home
EXTD=YEAR: 2009
EXTT0=
EXTT1=
EXTT2=
EXTT3=
EXTT4=
EXTT5=
EXTT6=
EXTT7=
PLAYORDER=
